HIERARCHY
ROOT root
{
	OFFSET 0.000000 0.000000 0.000000
	CHANNELS 6 Xposition Yposition Zposition Zrotation Yrotation Xrotation
	JOINT lhip
	{
		OFFSET 0.058581 -0.082280 -0.017664
		CHANNELS 3 Zrotation Yrotation Xrotation
		JOINT lknee
		{
			OFFSET 0.043451 -0.386469 0.008037
			CHANNELS 3 Zrotation Yrotation Xrotation
			JOINT lankle
			{
				OFFSET -0.014790 -0.426874 -0.037428
				CHANNELS 3 Zrotation Yrotation Xrotation
				JOINT ltoe
				{
					OFFSET 0.041054 -0.060286 0.122042
					CHANNELS 3 Zrotation Yrotation Xrotation
					End Site
					{
						OFFSET 0.000000 0.000000 0.000000
					}
				}
			}
		}
	}
	JOINT rhip
	{
		OFFSET -0.060310 -0.090513 -0.013543
		CHANNELS 3 Zrotation Yrotation Xrotation
		JOINT rknee
		{
			OFFSET -0.043257 -0.383688 -0.004843
			CHANNELS 3 Zrotation Yrotation Xrotation
			JOINT rankle
			{
				OFFSET 0.019056 -0.420046 -0.034562
				CHANNELS 3 Zrotation Yrotation Xrotation
				JOINT rtoe
				{
					OFFSET -0.034840 -0.062106 0.130323
					CHANNELS 3 Zrotation Yrotation Xrotation
					End Site
					{
						OFFSET 0.000000 0.000000 0.000000
					}
				}
			}
		}
	}
	JOINT lowerback
	{
		OFFSET 0.004439 0.124404 -0.038385
		CHANNELS 3 Zrotation Yrotation Xrotation
		JOINT upperback
		{
			OFFSET 0.004488 0.137956 0.026820
			CHANNELS 3 Zrotation Yrotation Xrotation
			JOINT chest
			{
				OFFSET -0.002265 0.056032 0.002855
				CHANNELS 3 Zrotation Yrotation Xrotation
				JOINT lowerneck
				{
					OFFSET -0.013390 0.211636 -0.033468
					CHANNELS 3 Zrotation Yrotation Xrotation
					JOINT upperneck
					{
						OFFSET 0.010113 0.088937 0.050410
						CHANNELS 3 Zrotation Yrotation Xrotation
						End Site
						{
							OFFSET 0.000000 0.000000 0.000000
						}
					}
				}
				JOINT lclavicle
				{
					OFFSET 0.071702 0.114000 -0.018898
					CHANNELS 3 Zrotation Yrotation Xrotation
					JOINT lshoulder
					{
						OFFSET 0.122921 0.045205 -0.019046
						CHANNELS 3 Zrotation Yrotation Xrotation
						JOINT lelbow
						{
							OFFSET 0.255332 -0.015649 -0.022946
							CHANNELS 3 Zrotation Yrotation Xrotation
							JOINT lwrist
							{
								OFFSET 0.265709 0.012698 -0.007375
								CHANNELS 3 Zrotation Yrotation Xrotation
								End Site
								{
									OFFSET 0.000000 0.000000 0.000000
								}
							}
						}
					}
				}
				JOINT rclavicle
				{
					OFFSET -0.082954 0.112472 -0.023707
					CHANNELS 3 Zrotation Yrotation Xrotation
					JOINT rshoulder
					{
						OFFSET -0.113228 0.046853 -0.008472
						CHANNELS 3 Zrotation Yrotation Xrotation
						JOINT relbow
						{
							OFFSET -0.260127 -0.014369 -0.031269
							CHANNELS 3 Zrotation Yrotation Xrotation
							JOINT rwrist
							{
								OFFSET -0.269108 0.006794 -0.006027
								CHANNELS 3 Zrotation Yrotation Xrotation
								End Site
								{
									OFFSET 0.000000 0.000000 0.000000
								}
							}
						}
					}
				}
			}
		}
	}
}
MOTION
Frames: 17
Frame Time: 0.033333
0.370090 0.166104 0.995774 89.019983 -0.010677 91.002834 7.641164 3.866362 4.964099 -3.863425 -3.515976 -5.547146 -0.577054 6.198493 -3.487486 0.000000 -0.000000 0.000000 -7.501537 -4.714302 1.522534 1.936027 -2.607653 -0.043166 4.492180 -4.849247 -5.556770 0.000000 -0.000000 0.000000 -4.781166 3.927260 -8.476918 2.259638 -2.850274 16.215152 -0.462055 0.145320 -6.404257 3.990523 1.459528 4.568573 5.932083 -5.781524 -3.723750 -28.742988 -3.216587 -0.250758 -54.438106 -8.165019 17.617494 -0.542250 -19.222897 10.619327 -8.619495 -14.806801 12.772617 31.163599 5.765385 5.304055 53.573351 5.733278 15.571991 -6.625172 25.738024 2.117828 2.800003 12.024378 6.559452 
0.370136 0.166079 0.995711 89.029109 -0.016372 90.957103 7.634991 3.844319 5.022596 -3.845520 -3.518468 -5.553400 -0.605584 6.187629 -3.502246 0.000000 -0.000000 0.000000 -7.500698 -4.689289 1.595931 1.923999 -2.589603 -0.071687 4.502842 -4.887217 -5.569374 0.000000 -0.000000 0.000000 -4.719293 3.885960 -8.315455 2.191098 -2.795384 15.954074 -0.431231 0.180749 -6.234174 3.963959 1.435560 4.336775 5.878725 -5.785521 -3.421524 -28.648097 -3.339125 -0.165310 -54.550246 -8.180480 17.542450 -0.476257 -19.163451 10.684062 -8.544218 -14.831150 12.727457 31.002338 5.859275 5.414790 53.754538 5.785365 15.539643 -6.742241 25.735030 2.060512 2.706649 12.031363 6.438824 
0.370142 0.166086 0.995646 89.032424 -0.019772 90.938527 7.627637 3.824843 5.037307 -3.836411 -3.513421 -5.539384 -0.620931 6.177826 -3.508182 0.000000 -0.000000 0.000000 -7.502534 -4.671642 1.631479 1.918778 -2.574965 -0.091612 4.509623 -4.905067 -5.566784 0.000000 -0.000000 0.000000 -4.674093 3.854098 -8.206774 2.157548 -2.775771 15.759925 -0.405409 0.184824 -6.110268 3.923949 1.458831 4.213398 5.829670 -5.730954 -3.244829 -28.588912 -3.395116 -0.115116 -54.646995 -8.186538 17.499013 -0.394817 -19.130001 10.755872 -8.522985 -14.836460 12.697379 30.926581 5.855448 5.435228 53.827228 5.860515 15.501006 -6.808065 25.758241 2.104990 2.710128 12.015720 6.419802 
0.369945 0.166185 0.995554 89.026080 -0.036796 90.899045 7.588371 3.772886 5.034594 -3.822507 -3.492512 -5.469506 -0.627146 6.183003 -3.522936 0.000000 -0.000000 0.000000 -7.526405 -4.632348 1.661463 1.904260 -2.519433 -0.097516 4.534755 -4.948829 -5.546054 0.000000 -0.000000 0.000000 -4.571976 3.769930 -7.867144 2.058077 -2.719870 15.244164 -0.337523 0.218549 -5.813382 3.776704 1.558667 3.888115 5.714187 -5.508596 -2.812075 -28.440077 -3.474420 -0.053731 -54.881377 -8.171761 17.458083 -0.244058 -19.137298 11.015481 -8.382166 -14.875438 12.548742 30.733923 5.836094 5.505949 54.070349 6.006085 15.455533 -6.947438 25.768555 2.142576 2.535395 12.004518 6.225557 
0.369959 0.166184 0.995558 89.026811 -0.039383 90.898927 7.587821 3.771815 5.035554 -3.823609 -3.492618 -5.468923 -0.626977 6.182468 -3.524683 0.000000 -0.000000 0.000000 -7.527720 -4.631942 1.664489 1.904519 -2.520686 -0.099373 4.536666 -4.951171 -5.545377 0.000000 -0.000000 0.000000 -4.567911 3.767713 -7.856564 2.056678 -2.719265 15.231800 -0.332792 0.218972 -5.801238 3.773663 1.562860 3.879626 5.713926 -5.503948 -2.807439 -28.435280 -3.482793 -0.044226 -54.886391 -8.176150 17.452599 -0.238857 -19.141473 11.022576 -8.379028 -14.875314 12.537189 30.731721 5.835980 5.510713 54.077699 6.009457 15.453398 -6.951547 25.771243 2.147827 2.531622 11.998198 6.204560 
0.369751 0.166254 0.995578 89.014171 -0.060737 90.903778 7.556170 3.755789 5.036055 -3.830556 -3.499634 -5.492605 -0.637431 6.214142 -3.533581 0.000000 -0.000000 0.000000 -7.544635 -4.585487 1.661501 1.888374 -2.565146 -0.130823 4.570626 -4.986277 -5.555839 0.000000 -0.000000 0.000000 -4.493353 3.733723 -7.721434 1.963728 -2.661714 15.092222 -0.327040 0.269078 -5.757564 3.764264 1.621264 3.834090 5.726045 -5.461789 -2.814115 -28.289910 -3.695119 0.118378 -55.068199 -8.156362 17.441392 -0.107412 -19.189010 10.924813 -8.349541 -14.857157 12.400958 30.475297 6.171146 5.797168 54.453745 5.898359 15.545485 -7.130194 25.758081 1.890886 2.323487 11.979998 5.773334 
0.369589 0.166369 0.995595 88.999970 -0.065418 90.935292 7.536018 3.740377 4.993205 -3.824212 -3.470402 -5.470877 -0.617758 6.232147 -3.532919 0.000000 -0.000000 0.000000 -7.558467 -4.560022 1.651814 1.902766 -2.535253 -0.191735 4.581975 -5.004066 -5.482159 0.000000 -0.000000 0.000000 -4.452700 3.718803 -7.648373 1.922562 -2.630450 14.973604 -0.323371 0.263345 -5.694159 3.794878 1.657985 3.727639 5.703268 -5.466764 -2.730652 -28.213016 -3.714780 0.124504 -55.194721 -8.212041 17.477918 -0.086423 -19.109270 10.933585 -8.338908 -14.834558 12.360151 30.317481 6.271298 5.915707 54.745875 5.869144 15.681411 -7.235676 25.744832 1.794485 2.212914 11.900627 5.547246 
0.369560 0.166492 0.995600 88.998242 -0.059795 90.942909 7.544967 3.725673 5.002070 -3.844217 -3.480961 -5.496081 -0.611061 6.206050 -3.526866 0.000000 -0.000000 0.000000 -7.548065 -4.563345 1.650068 1.889136 -2.524250 -0.206859 4.593123 -5.020897 -5.478640 0.000000 -0.000000 0.000000 -4.422151 3.697150 -7.580867 1.908594 -2.647109 14.842126 -0.310243 0.266609 -5.615846 3.803059 1.697146 3.666861 5.680804 -5.442398 -2.611883 -28.243086 -3.697575 0.171246 -55.217713 -8.267144 17.426547 -0.061503 -19.086058 11.007981 -8.340006 -14.803968 12.326205 30.321781 6.180221 5.924366 54.806080 5.892018 15.695125 -7.214238 25.820444 1.973107 2.274473 11.825596 5.462207 
0.369566 0.166545 0.995623 88.996391 -0.051463 90.966261 7.552464 3.729170 4.988004 -3.848743 -3.499918 -5.515258 -0.596355 6.205316 -3.503040 0.000000 -0.000000 0.000000 -7.533570 -4.557430 1.624712 1.875803 -2.515983 -0.210402 4.611249 -5.031488 -5.477269 0.000000 -0.000000 0.000000 -4.406664 3.692950 -7.490158 1.929878 -2.634780 14.690255 -0.295678 0.271390 -5.571714 3.733922 1.654182 3.632292 5.701467 -5.415453 -2.586519 -28.261811 -3.684156 0.177616 -55.217954 -8.304242 17.427584 -0.075202 -19.076440 11.116237 -8.373236 -14.792244 12.286127 30.321680 6.004009 5.835574 54.820204 5.858382 15.645371 -7.134383 25.856176 2.212035 2.472657 11.785579 5.415936 
0.369536 0.166630 0.995649 88.987749 -0.047646 91.007461 7.539321 3.735137 4.942521 -3.831884 -3.492372 -5.514913 -0.589129 6.227166 -3.476044 0.000000 -0.000000 0.000000 -7.515492 -4.560879 1.571883 1.843899 -2.470630 -0.201048 4.626666 -5.048239 -5.444284 0.000000 -0.000000 0.000000 -4.414241 3.688899 -7.391661 1.968799 -2.621010 14.498842 -0.266309 0.247936 -5.508789 3.682525 1.636886 3.534253 5.716574 -5.372105 -2.539446 -28.285386 -3.618708 0.141300 -55.226391 -8.323358 17.445221 -0.086779 -19.131360 11.275665 -8.372474 -14.736009 12.282537 30.383666 5.766253 5.709870 54.769993 5.831740 15.629942 -7.075973 25.917112 2.509906 2.600749 11.653002 5.525882 
0.369623 0.166719 0.995759 88.962707 -0.065246 90.994457 7.508754 3.744253 4.976194 -3.827574 -3.502050 -5.539467 -0.560511 6.246695 -3.478505 0.000000 -0.000000 0.000000 -7.533791 -4.575160 1.586573 1.834456 -2.450835 -0.218864 4.635871 -5.059916 -5.458172 0.000000 -0.000000 0.000000 -4.411026 3.711855 -7.273513 1.962634 -2.592547 14.333199 -0.254650 0.214795 -5.421111 3.677841 1.656064 3.430793 5.757644 -5.271228 -2.479620 -28.297912 -3.685688 0.168792 -55.187359 -8.356511 17.433170 -0.158395 -19.077294 11.298822 -8.292631 -14.754760 12.144047 30.404557 5.720133 5.697922 54.767225 5.792064 15.645013 -7.027377 25.909594 2.635032 2.674400 11.605946 5.506827 
0.369672 0.166836 0.995828 88.945757 -0.070393 91.017173 7.498780 3.726204 4.954956 -3.843630 -3.494132 -5.531117 -0.530980 6.260379 -3.507856 0.000000 -0.000000 0.000000 -7.541765 -4.564074 1.568407 1.834861 -2.422159 -0.231949 4.643732 -5.057871 -5.469080 0.000000 -0.000000 0.000000 -4.402516 3.710010 -7.207825 1.966418 -2.578983 14.217543 -0.230603 0.205472 -5.395972 3.663234 1.663515 3.377542 5.735981 -5.196349 -2.453839 -28.308948 -3.704453 0.183277 -55.202026 -8.383518 17.410695 -0.166957 -19.014952 11.319325 -8.244491 -14.792169 12.091614 30.360616 5.732536 5.729432 54.801879 5.747616 15.660290 -7.002360 25.871984 2.669985 2.638036 11.631679 5.486511 
0.369747 0.166885 0.995846 88.896800 -0.064969 91.060125 7.493409 3.724405 4.920699 -3.849650 -3.445092 -5.533372 -0.519985 6.290394 -3.492028 0.000000 -0.000000 0.000000 -7.534040 -4.534156 1.518175 1.834642 -2.405798 -0.239305 4.628961 -5.079919 -5.446926 0.000000 -0.000000 0.000000 -4.378506 3.719828 -7.224540 1.976067 -2.560727 14.189066 -0.223151 0.217062 -5.409289 3.650200 1.710715 3.379375 5.705071 -5.134650 -2.402978 -28.336803 -3.720810 0.174897 -55.205257 -8.421374 17.426019 -0.100594 -18.977079 11.306666 -8.245563 -14.844882 12.157663 30.365676 5.721716 5.748690 54.797357 5.720431 15.664794 -7.011453 25.848962 2.752287 2.577440 11.693881 5.567781 
0.369996 0.166921 0.995803 88.876348 -0.060919 91.082796 7.500384 3.717109 4.908947 -3.861954 -3.404619 -5.523175 -0.511067 6.290701 -3.504942 0.000000 -0.000000 0.000000 -7.529350 -4.538432 1.532948 1.831458 -2.382094 -0.290113 4.616894 -5.071587 -5.424524 0.000000 -0.000000 0.000000 -4.376537 3.713926 -7.257410 1.979318 -2.592043 14.181807 -0.216679 0.199672 -5.398273 3.684540 1.774514 3.366757 5.650192 -5.115185 -2.329994 -28.335378 -3.666344 0.134235 -55.215710 -8.448232 17.445357 -0.061427 -18.983664 11.273379 -8.247773 -14.840409 12.129249 30.379599 5.693812 5.726859 54.777947 5.811441 15.697588 -6.983831 25.754631 2.672560 2.556967 11.642812 5.547824 
0.370203 0.167004 0.995750 88.865240 -0.059118 91.100316 7.511364 3.715935 4.902032 -3.896980 -3.385662 -5.518378 -0.516229 6.279631 -3.519869 0.000000 -0.000000 0.000000 -7.530156 -4.548364 1.515799 1.825471 -2.372886 -0.270251 4.628312 -5.072195 -5.448562 0.000000 -0.000000 0.000000 -4.384854 3.715834 -7.276681 1.997174 -2.617749 14.166849 -0.194003 0.203703 -5.404163 3.696908 1.784099 3.348355 5.574198 -5.122158 -2.234237 -28.365775 -3.647011 0.122097 -55.179110 -8.448212 17.457649 -0.082849 -19.048816 11.268923 -8.228700 -14.810850 12.092645 30.414233 5.693242 5.733124 54.727735 5.819857 15.721770 -7.062977 25.732982 2.594799 2.583356 11.598219 5.456575 
0.370467 0.167013 0.995681 88.836731 -0.055115 91.119352 7.516801 3.735405 4.904826 -3.906976 -3.329070 -5.532864 -0.514617 6.269602 -3.501157 0.000000 -0.000000 0.000000 -7.528800 -4.562839 1.502787 1.815219 -2.365746 -0.266450 4.634084 -5.026611 -5.436657 0.000000 -0.000000 0.000000 -4.391598 3.709941 -7.303621 2.007813 -2.644647 14.159377 -0.176257 0.227956 -5.413008 3.728791 1.841096 3.325014 5.499336 -5.113373 -2.166951 -28.340763 -3.551017 0.039269 -55.163655 -8.476954 17.433286 -0.197064 -19.103479 11.320557 -8.126872 -14.788437 12.102238 30.432134 5.644789 5.680660 54.673701 5.863554 15.732871 -7.082616 25.737800 2.520531 2.509701 11.685690 5.453816 
0.370743 0.166980 0.995590 88.812625 -0.057478 91.148517 7.516914 3.751146 4.907333 -3.910681 -3.324853 -5.549174 -0.509018 6.274063 -3.507652 0.000000 -0.000000 0.000000 -7.528138 -4.594886 1.473188 1.801434 -2.351190 -0.234846 4.644648 -5.020470 -5.466417 0.000000 -0.000000 0.000000 -4.376819 3.712769 -7.347231 1.987937 -2.659726 14.187286 -0.195153 0.228087 -5.480355 3.746680 1.844591 3.319133 5.481236 -5.117414 -2.051309 -28.300493 -3.602394 0.038669 -55.216288 -8.413938 17.535508 -0.062575 -19.119593 11.252427 -8.070213 -14.760071 12.059733 30.391961 5.723705 5.748297 54.738437 5.827237 15.781821 -7.144793 25.799821 2.380341 2.387462 11.670658 5.401267 
